PathFileType	4	(X/Y/Z)	D:\Long Term Storage\D'Arcy Smith\Coord17.trc
DataRate	CameraRate	NumFrames	NumMarkers	Units	OrigDataRate	OrigDataStartFrame	OrigNumFrames
120.00	120.00	      137	4	mm	120.00	3034	      4853
Frame#	Time	M1			M2			M3			M4			
		X1	Y1	Z1	X2	Y2	Z2	X3	Y3	Z3	X4	Y4	Z4	

3034	25.275	540.70538	416.39761	18.92486	996.70667	358.54199	149.87169							
3035	25.283	539.64240	425.97922	9.86008	999.74597	362.31183	136.80307							
3036	25.292	537.84082	434.83524	1.66587	1003.03479	366.76154	123.09232							
3037	25.300	536.58234	443.43021	-5.37858	1005.68109	370.66437	110.68836							
3038	25.308	535.81458	452.12085	-11.71050	1008.61053	375.42401	98.60364							
3039	25.317	535.12970	459.14160	-16.39852	1011.39771	380.90277	84.98575							
3040	25.325	534.68951	465.82660	-20.66212	1014.21741	386.49814	73.78970							
3041	25.333	534.07611	471.38843	-24.28491	1016.88489	391.80942	63.10283							
3042	25.342	534.23895	476.40787	-26.90747	1018.98157	396.79211	53.22483							
3043	25.350	534.63806	480.27902	-28.90917	1021.74213	402.77182	44.19537							
3044	25.358	535.19806	483.37726	-30.16059	1024.21338	408.68466	34.46441							
3045	25.367	535.99115	485.43268	-30.84166	1026.09692	413.90012	26.16225							
3046	25.375	536.87671	486.72061	-30.83581	1027.95630	418.99884	19.16557							
3047	25.383	537.89392	487.12973	-30.40148	1029.76184	424.16559	12.43778							
3048	25.392	539.04999	486.84790	-29.53039	1031.47290	429.01166	6.40325							
3049	25.400	540.47284	485.87207	-28.18992	1032.97766	433.54865	0.98057							
3050	25.408	541.73004	484.14139	-26.66937	1034.19214	437.70346	-3.82505							
3051	25.417	543.32465	481.89029	-24.55022	1035.50439	441.40820	-7.90031							
3052	25.425	544.91260	479.04404	-22.37945	1036.52441	444.62738	-11.26773							
3053	25.433	546.51990	475.56842	-19.97967	1037.64392	447.41849	-14.26283							
3054	25.442	548.26691	471.64371	-17.24482	1038.54663	449.59271	-16.48523							
3055	25.450	549.79205	467.17542	-14.30877	1039.37146	451.34772	-18.21053							
3056	25.458	551.08862	462.31274	-11.30426	1039.99084	452.60028	-19.36316							
3057	25.467	552.54034	456.85532	-7.94490	1040.59106	453.21503	-19.95273							
3058	25.475	553.93506	451.23166	-4.22702	1041.07898	453.30661	-20.00211							
3059	25.483	555.31769	445.21155	-0.12371	1041.45178	452.88718	-19.47469							
3060	25.492	556.67529	438.71619	4.08965	1041.72534	451.90216	-18.41670							
3061	25.500	558.22021	431.44501	9.29348	1041.84717	450.34732	-16.78629							
3062	25.508	559.88776	424.51364	14.47137	1041.84277	448.28891	-14.81865							
3063	25.517	561.08270	417.38354	20.24940	1041.66223	445.75479	-12.27875							
3064	25.525	562.14282	409.69745	26.06387	1041.30908	442.71051	-9.20173							
3065	25.533	563.70367	401.59891	33.75463	1041.02380	439.30902	-5.80347							
3066	25.542	564.98407	392.87753	41.64256	1040.62622	435.49350	-1.90431							
3067	25.550	566.49866	384.35376	50.61218	1039.87415	431.26035	2.60053							
3068	25.558	567.96808	375.59406	60.36569	1039.09265	426.62616	7.43213							
3069	25.567	569.44531	367.01678	70.93111	1038.35730	421.66940	12.70874							
3070	25.575	571.02948	358.88889	82.38338	1037.32361	416.48676	18.49909							
3071	25.583	572.31824	349.98148	95.55009	1036.22949	410.93823	24.70861							
3072	25.592	573.66516	341.76398	107.63012	1034.94592	405.12720	31.49381							
3073	25.600	575.55261	333.81540	121.59749	1033.55872	399.12790	39.33795							
3074	25.608	576.85156	326.63171	135.94707	1032.08118	393.02725	46.33220							
3075	25.617	577.73926	320.09384	150.77542	1030.44189	386.75003	54.49651							
3076	25.625	578.49084	314.04660	166.40178	1028.78552	380.50842	63.13363							
3077	25.633	579.53363	309.27982	183.27460	1026.70142	373.82465	72.40947							
3078	25.642	579.60724	304.64664	199.67857	1024.75806	367.61261	81.96278							
3079	25.650	579.56293	301.23178	216.51302	1022.81964	361.68762	92.32819							
3080	25.658	579.55463	297.61215	233.70348	1020.80408	356.02756	104.38602							
3081	25.667	579.37305	295.74133	250.54930	1018.59387	350.41980	115.21118							
3082	25.675	579.51563	293.58484	267.41809	1015.94641	344.59589	126.75615							
3083	25.683	578.69482	292.68863	284.21811	1015.04443	339.27463	139.00764							
3084	25.692	578.95001	291.87595	300.96085	1011.18994	335.52679	150.14334							
3085	25.700	578.77576	292.20578	317.90433	1008.86029	331.10675	162.34915							
3086	25.708	578.15540	294.04144	335.33212	1007.22809	326.80930	175.59520							
3087	25.717	578.09418	295.70328	351.82031	1004.44257	323.54001	187.96280							
3088	25.725	577.53937	297.88998	367.77258	1001.69617	320.76120	200.63416							
3089	25.733	577.24854	300.89548	383.68454	998.88519	318.52847	213.54207							
3090	25.742	576.95947	304.42368	398.81064	995.86505	316.91348	226.52879							
3091	25.750	576.55524	309.08810	414.20349	993.19794	315.48013	239.70891							
3092	25.758	576.16559	313.71225	428.31104	990.32037	314.75348	252.76436							
3093	25.767	575.36475	319.05679	442.06955	987.47351	314.42691	265.19687							
3094	25.775	575.36652	325.32416	456.18414	984.86969	314.66254	277.69092							
3095	25.783	574.64557	331.51593	467.83160	982.01514	315.09689	290.14343							
3096	25.792	573.99622	337.96240	481.79886	979.48529	316.27969	302.05966							
3097	25.800	573.30524	344.53671	492.36734	977.01105	317.72263	313.61771							
3098	25.808	572.59241	351.02493	502.64029	974.64557	319.58734	325.35364							
3099	25.817	572.18835	357.33643	511.58728	971.74005	322.03546	335.53833							
3100	25.825	571.67120	364.00937	519.98584	969.51605	324.45465	346.14984							
3101	25.833	571.24023	369.92709	527.45117	967.45190	327.19391	356.05933							
3102	25.842	571.07959	375.90945	534.54236	965.65173	329.97784	365.83310							
3103	25.850	570.75861	381.57108	540.33929	963.97461	332.90573	374.64218							
3104	25.858	570.72656	386.89209	545.71387	962.68719	336.00787	383.29123							
3105	25.867	570.63251	391.90686	550.49908	961.31226	339.42560	391.44824							
3106	25.875	570.57080	396.39291	554.78351	960.35181	342.66714	398.83466							
3107	25.883	570.63165	400.38422	557.87146	959.37140	346.13904	405.55847							
3108	25.892	570.59357	404.03366	560.71112	958.50256	349.39929	412.17703							
3109	25.900	570.64191	406.84970	562.96765	957.95929	352.68329	417.90729							
3110	25.908	570.51013	409.52905	564.71643	957.44263	355.74048	422.62225							
3111	25.917	570.75195	411.30475	565.98926	957.29810	358.43146	427.43542							
3112	25.925	570.74060	412.57816	566.89459	957.41290	361.04413	430.94437							
3113	25.933	570.73083	413.29648	566.92328	957.61115	363.29651	434.08118							
3114	25.942	570.55157	414.07730	567.09064	957.96289	365.31589	436.40366							
3115	25.950	570.69501	413.33136	565.88715	958.62921	367.12598	439.02585							
3116	25.958	570.63367	412.50607	564.54565	959.35931	368.23700	439.82813							
3117	25.967	570.59943	411.16382	562.53125	960.17383	369.50702	441.08405							
3118	25.975	570.54968	409.55612	559.99902	961.19299	369.82443	440.76501							
3119	25.983	570.65436	407.21741	557.29236	962.36340	370.20309	440.27542							
3120	25.992	570.48346	404.34238	553.63403	963.63226	370.20392	439.32986							
3121	26.000	570.47650	401.28076	549.63898	965.11560	369.86420	437.45966							
3122	26.008	570.36084	397.63412	544.91937	966.71173	369.06796	434.94150							
3123	26.017	570.16632	393.61682	539.40021	968.36572	368.04910	431.82916							
3124	26.025	570.07318	389.37955	533.38000	970.41699	366.60934	427.77490							
3125	26.033	569.73523	384.53809	526.55359	972.29401	365.07858	423.36734							
3126	26.042	569.48901	379.53384	518.97565	974.34125	363.13583	418.34247							
3127	26.050	569.22534	374.24542	510.61749	976.68646	361.05673	412.15726							
3128	26.058	568.58624	368.83383	501.90143	979.02875	358.92041	405.57114							
3129	26.067	568.16638	363.07480	491.77335	981.41620	356.69153	398.58121							
3130	26.075	567.86182	357.73639	482.07730	983.93311	354.45865	390.39853							
3131	26.083	566.92957	351.56165	469.64343	986.39294	352.31100	381.74460							
3132	26.092	565.83813	345.59241	455.22922	989.05157	349.93207	372.98199							
3133	26.100	564.99963	340.00870	442.20627	991.70599	347.76657	363.34204							
3134	26.108	563.87048	334.70609	428.29431	994.35443	345.76166	352.84940							
3135	26.117	562.56946	329.69476	413.64688	996.99017	344.06128	341.68143							
3136	26.125	561.31934	325.08539	398.25983	999.64532	342.37894	330.62473							
3137	26.133	559.83124	320.80649	382.32718	1002.54266	341.05890	318.74002							
3138	26.142	558.09698	317.22064	366.03384	1006.13177	339.87845	306.81796							
3139	26.150	556.73163	313.29407	348.25632	1008.79590	339.17148	294.17157							
3140	26.158	554.69830	310.86328	330.39337	1010.57874	339.18005	280.84665							
3141	26.167	552.74304	309.62546	312.43866	1013.48267	339.23083	267.54480							
3142	26.175	550.63226	309.66049	293.59143	1016.93896	339.46744	254.62170							
3143	26.183	548.28210	309.11877	274.95685	1019.64166	340.48621	240.84927							
3144	26.192	546.06293	309.93976	255.89941	1021.02185	342.99777	224.67795							
3145	26.200	543.18640	311.06418	236.94157	1023.84052	344.21106	212.58215							
3146	26.208	540.71002	314.30710	217.45334	1026.39844	346.53622	198.91339							
3147	26.217	538.11163	317.80652	198.46812	1028.83313	349.44833	184.91660							
3148	26.225	535.23883	322.35233	180.97427	1031.81824	352.07758	171.54800							
3149	26.233	532.02527	326.96481	159.90598	1032.63293	355.60556	157.75136							
3150	26.242	529.10492	333.20865	141.97919	1035.06873	359.93051	144.31827							
3151	26.250	526.01349	340.19473	124.60810	1037.08765	364.34268	131.33217							
3152	26.258	523.01764	348.09784	108.39764	1038.53772	368.73080	118.60310							
3153	26.267	520.16272	356.75562	92.58964	1040.21765	373.73904	106.32184							
3154	26.275	517.09961	366.67923	77.59330	1041.81494	379.69836	92.07340							
3155	26.283	514.13629	376.19238	63.67023	1043.15283	385.24271	80.66741							
3156	26.292	511.42828	385.75507	50.54777	1044.78271	391.31705	69.55564							
3157	26.300	508.88834	395.97650	38.49488	1045.79321	396.76285	59.16155							
3158	26.308	505.77133	406.15970	27.44593	1047.05798	403.08661	48.82315							
3159	26.317	503.27197	416.28250	18.00718	1047.79724	408.85654	39.65329							
3160	26.325	501.59659	426.31006	9.33098	1048.37183	414.53278	30.89340							
3161	26.333	500.22894	436.28671	1.74694	1048.89941	420.17163	22.90096							
3162	26.342	498.74072	445.37543	-5.09080	1049.18872	425.53632	15.57958							
3163	26.350	497.81958	454.55380	-11.02855	1049.50903	430.72910	8.81449							
3164	26.358	497.32733	462.44510	-15.64925	1049.62280	435.60019	2.71598							
3165	26.367	496.88486	470.09210	-19.62900	1049.65295	440.13159	-2.67809							
3166	26.375	497.38812	476.28812	-23.26160	1049.52380	444.24304	-7.37786							
3167	26.383	497.08923	481.73175	-26.00498	1049.34729	447.89209	-11.43387							
3168	26.392	497.91605	486.65915	-28.08799	1049.15918	451.06534	-14.79473							
3169	26.400	498.63928	490.61154	-29.65696	1048.84485	453.65192	-17.64519							
3170	26.408	499.28424	493.43445	-30.86714	1048.50366	455.67993	-19.69650							
